<svg xmlns="http://www.w3.org/2000/svg"  viewBox="0 0 256 256" width="64px" height="64px"><path fill="#87828e" d="M44.794,82.108c0,0-2.1,43.735-39.85,53.249c0,0-3.185,33.31,34.898,36.394H81.49V81.988L44.794,82.108z"/><path fill="#a4a4a5" d="M81.493,81.99v0.05l-21.7,0.07c0,0-2.1,43.73-39.85,53.25c0,0-3.18,33.31,34.9,36.39h-15 c-38.08-3.08-34.9-36.39-34.9-36.39c37.75-9.52,39.85-53.25,39.85-53.25L81.493,81.99z"/><path fill="#ffe2e2" d="M177.655,237.261c0,6.3-5.11,11.4-11.4,11.4h-149.9c-6.29,0-11.4-5.1-11.4-11.4 c0-72.045,79.422-111.5,135.93-71.81C163.139,181.029,177.655,206.622,177.655,237.261z"/><path fill="#ffefee" d="M104.084,150.743c-39.341,5.626-73.576,39.625-73.576,86.526c0,6.288,5.112,11.4,11.399,11.4H16.348 c-6.288,0-11.399-5.112-11.399-11.4C4.949,181.744,52.993,143.208,104.084,150.743z"/><path fill="#ffcfcf" d="M177.66,237.269c0,6.288-5.112,11.4-11.399,11.4h-25.559c5.735,0,11.399-4.184,11.399-12.507 c0-43.393-32.094-79.37-73.576-85.419C129.984,143.184,177.66,182.102,177.66,237.269z"/><path fill="#44c7b6" d="M49.565,160.551v88.11h-33.21c-6.29,0-11.4-5.1-11.4-11.4C4.955,203.007,23.202,175.099,49.565,160.551z"/><path fill="#44c7b6" d="M177.655,237.261c0,6.3-5.11,11.4-11.4,11.4h-33.21v-88.1C159.033,174.807,177.655,202.662,177.655,237.261 z"/><path fill="#f973a3" d="M30.505,237.271c0,6.09,4.8,11.08,10.81,11.39c0.2,0,0.39,0.01,0.59,0.01h-25.56 c-5.446,0-11.4-3.916-11.4-12.51c0-31.195,16.815-59.527,42.59-74.45c0.01-0.01,0.03-0.02,0.04-0.02 c0.66-0.39,1.32-0.77,1.99-1.14v21.5C37.607,196.898,30.505,215.359,30.505,237.271z"/><path fill="#f973a3" d="M177.665,237.271c0,6.29-5.12,11.4-11.4,11.4h-25.56c0.2,0,0.39-0.01,0.59-0.01 c5.571-0.287,10.81-4.486,10.81-12.5c0-20.48-7.13-39.28-19.06-54.09v-21.51C159.178,174.935,177.665,202.879,177.665,237.271z"/><path fill="#4bdbc3" d="M30.505,237.271c0,6.09,4.8,11.08,10.81,11.39h-24.96c-5.757,0-11.4-4.194-11.4-12.5 c0-31.036,16.658-59.442,42.58-74.45c0.01-0.01,0.03-0.02,0.04-0.02c0.66-0.39,1.32-0.77,1.99-1.14v21.5 C37.607,196.898,30.505,215.359,30.505,237.271z"/><path fill="#3bb2a0" d="M177.655,237.261c0,6.3-5.11,11.4-11.4,11.4h-24.96c5.571-0.287,10.81-4.486,10.81-12.5 c0-20.48-7.13-39.28-19.06-54.09v-21.51c7.653,4.209,15.251,10.232,19.31,14.53h0.01 C168.024,190.75,177.655,212.021,177.655,237.261z"/><g><path fill="#ffbb98" d="M137.624,61.349v42.033c0,22.988-16.921,42.193-38.926,45.804c-0.011,0-0.011,0-0.023,0 c-27.544,4.729-53.881-16.949-53.881-45.804V61.349c0-3.153,2.582-5.735,5.735-5.735h81.359 C135.042,55.614,137.624,58.196,137.624,61.349z"/><path fill="#ffaa80" d="M137.624,61.886v41.496c0,22.988-16.921,42.193-38.926,45.804c-0.011,0-0.011,0-0.023,0 c-5.853,1.005-13.716,0.403-14.921,0c22.089-3.65,38.914-22.886,38.914-45.804V61.886c0-3.45-2.822-6.272-6.272-6.272h14.956 C134.802,55.614,137.624,58.436,137.624,61.886z"/><path fill="#ffcaa6" d="M98.675,149.186c-27.544,4.729-53.881-16.949-53.881-45.804V61.886c0-3.45,2.833-6.272,6.284-6.272 h14.956c-3.45,0-6.284,2.822-6.284,6.272v41.496C59.75,126.283,76.559,145.532,98.675,149.186z"/><path fill="#87828e" d="M101.514,7.332c-0.575,0-21.122,0-20.606,0c-26.433,0-47.862,21.428-47.862,47.862v22.06 c0,2.739,2.217,4.966,4.956,4.989c40.527,0.332,48.262-18.981,52.262-35.416c3.943,16.463,11.039,35.197,54.09,35.346 c2.765,0.01,5.021-2.223,5.021-4.988V55.194C149.376,28.761,127.948,7.332,101.514,7.332z"/><path fill="#796e84" d="M149.373,55.197v21.985c0,2.772-2.253,5.005-5.015,4.995c-4.546-0.02-8.704-0.239-12.483-0.648 c1.516-0.857,2.543-2.483,2.543-4.347V55.197c0-26.432-21.426-47.868-47.858-47.868h14.956 C127.946,7.329,149.373,28.765,149.373,55.197z"/><path fill="#a4a4a5" d="M48.003,55.197v22.055c0,1.884,1.037,3.52,2.582,4.377c-3.799,0.439-7.976,0.658-12.583,0.618 c-2.742-0.03-4.955-2.253-4.955-4.995V55.197c0-26.432,21.426-47.868,47.858-47.868h14.956 C69.43,7.329,48.003,28.765,48.003,55.197z"/></g><g><circle cx="198.637" cy="127.998" r="52.485" fill="#ffe2e2"/><circle cx="198.637" cy="127.998" r="37.99" fill="#44c7b6"/><path fill="#4bdbc3" d="M206.137,165.246c-23.494,4.737-45.49-13.267-45.49-37.25c0-20.98,17.01-37.99,37.99-37.99 c2.57,0,5.07,0.25,7.5,0.74c-17.39,3.48-30.49,18.84-30.49,37.25S188.747,161.766,206.137,165.246z"/><path fill="#3bb2a0" d="M236.627,127.996c0,23.975-21.986,41.989-45.49,37.25c17.39-3.48,30.49-18.84,30.49-37.25 s-13.1-33.77-30.49-37.25c2.43-0.49,4.93-0.74,7.5-0.74C219.617,90.006,236.627,107.016,236.627,127.996z"/></g><g><path fill="#5f266d" d="M113.58,148.56c16.61-8.25,28.05-25.41,28.05-45.18V86.13c0.89,0.03,1.79,0.04,2.71,0.04h0.03 c5.024,0,9.01-4.064,9.01-8.98v-22c0-28.59-23.27-51.86-51.87-51.86H80.89C52.3,3.34,29.05,26.6,29.05,55.19v22.06 c0,4.677,3.218,9.186,11.24,8.99c-1.66,10.73-8.61,38.25-36.32,45.24c-1.64,0.41-2.85,1.81-3.01,3.5 c-0.06,0.61-1.33,15.29,8.51,27.05c4.3,5.13,9.98,8.86,16.96,11.17c-16.28,16.64-25.47,39.18-25.47,64.07 c0,8.49,6.9,15.39,15.39,15.39c22.545,0,139.775,0,149.9,0c8.5,0,15.4-6.9,15.4-15.39 C181.65,192.744,152.104,158.321,113.58,148.56z M133.63,103.38c0,28.961-28.606,49.567-56.14,40.14 c-16.68-5.71-28.7-21.55-28.7-40.14V86.1v-0.26c10.64-0.95,19.29-3.54,26.14-7.83c2.02-1.26,3.89-2.67,5.6-4.23 c4.52-4.13,7.54-8.94,9.7-13.87c5.41,12.56,16.24,23.49,43.4,25.81V103.38z M39.03,78.25c-1,0-1.98,0.072-1.98-1V55.19 c0-24.18,19.67-43.86,43.86-43.86h20.6c24.19,0,43.87,19.68,43.87,43.86v22c0,0.546-0.452,0.98-1.01,0.98 C105.1,78.04,98.21,62.83,94.15,45.9c-0.43-1.8-2.03-3.07-3.88-3.07c1,0-3.049-0.453-3.89,3.05 C82.56,61.56,75.43,78.25,39.03,78.25z M8.91,138.39c14.18-4.42,25.26-14.16,32.31-28.44c2.22,17.01,12.96,31.39,27.79,38.69 c-12.807,3.284-25.166,9.505-35.61,18.15C17.779,163.478,9.48,152.887,8.91,138.39z M45.56,167.75c0,36.107,0,42.722,0,76.91 H16.35c-4.07,0-7.39-3.32-7.39-7.39c0-28.316,13.094-54.004,36.57-69.52c0.01-0.01,0.02-0.02,0.03-0.02V167.75z M129.045,244.66 H53.56c0-16.046,0-65.679,0-81.62c23.395-12.095,51.437-12.534,75.48-0.1c0.002,0.001,0.003,0.002,0.005,0.003V244.66z M166.25,244.66h-29.205v-76.987c24.116,16.23,36.605,41.938,36.605,69.597C173.65,241.34,170.33,244.66,166.25,244.66z"/><path fill="#5f266d" d="M68.354,92.086c-3.434,0-6.219,2.784-6.219,6.219c0,3.434,2.784,6.219,6.219,6.219s6.219-2.784,6.219-6.219 C74.572,94.87,71.788,92.086,68.354,92.086z"/><path fill="#5f266d" d="M114.069,104.523c3.434,0,6.219-2.784,6.219-6.219c0-3.434-2.784-6.219-6.219-6.219 c-3.434,0-6.219,2.784-6.219,6.219C107.851,101.739,110.635,104.523,114.069,104.523z"/><path fill="#5f266d" d="M96.93,109.17v1.95c0,3.16-2.56,5.73-5.72,5.73c-3.15,0-5.72-2.57-5.72-5.73v-1.95c0-2.21-1.79-4-4-4 c-2.21,0-4,1.79-4,4v1.95c0,5.53,3.28,10.3,8,12.47c1.74,0.81,3.68,1.26,5.72,1.26c7.57,0,13.72-6.16,13.72-13.73v-1.95 c0-2.21-1.79-4-4-4S96.93,106.96,96.93,109.17z"/><path fill="#5f266d" d="M131.94,52.46c2.21,0,4-1.79,4-4v-3.71c0-2.21-1.79-4-4-4s-4,1.79-4,4v3.71 C127.94,50.67,129.73,52.46,131.94,52.46z"/><path fill="#5f266d" d="M131.94,71.46c2.21,0,4-1.79,4-4v-4c0-2.21-1.79-4-4-4s-4,1.79-4,4v4 C127.94,69.67,129.73,71.46,131.94,71.46z"/><path fill="#5f266d" d="M198.64,71.51c-31.15,0-56.49,25.34-56.49,56.49c0,31.14,25.34,56.48,56.49,56.48 c31.14,0,56.48-25.34,56.48-56.48C255.12,96.85,229.78,71.51,198.64,71.51z M198.64,176.48c-26.74,0-48.49-21.75-48.49-48.48 c0-26.74,21.75-48.49,48.49-48.49c26.73,0,48.48,21.75,48.48,48.49C247.12,154.73,225.37,176.48,198.64,176.48z"/><path fill="#5f266d" d="M198.64,86.01c-23.16,0-41.99,18.83-41.99,41.99c0,23.15,18.83,41.99,41.99,41.99 c23.15,0,41.99-18.84,41.99-41.99C240.63,104.84,221.79,86.01,198.64,86.01z M198.64,161.99c-18.75,0-33.99-15.25-33.99-33.99 s15.24-33.99,33.99-33.99c18.74,0,33.99,15.25,33.99,33.99S217.38,161.99,198.64,161.99z"/><path fill="#5f266d" d="M211.328,115.115l-18.159,17.309l-6.841-8.68c-1.367-1.734-3.883-2.034-5.617-0.666 c-1.735,1.368-2.033,3.883-0.666,5.618l9.562,12.131c1.461,1.853,4.199,2.043,5.901,0.419l21.34-20.34 c1.6-1.524,1.66-4.056,0.136-5.655C215.46,113.653,212.928,113.591,211.328,115.115z"/></g></svg>